<?xml version="1.0" encoding="UTF-8" standalone="no"?>
<!-- Created with Inkscape (http://www.inkscape.org/) -->

<svg
   xmlns:dc="http://purl.org/dc/elements/1.1/"
   xmlns:cc="http://creativecommons.org/ns#"
   xmlns:rdf="http://www.w3.org/1999/02/22-rdf-syntax-ns#"
   xmlns:svg="http://www.w3.org/2000/svg"
   xmlns="http://www.w3.org/2000/svg"
   xmlns:sodipodi="http://sodipodi.sourceforge.net/DTD/sodipodi-0.dtd"
   xmlns:inkscape="http://www.inkscape.org/namespaces/inkscape"
   width="100mm"
   height="100mm"
   viewBox="0 0 100 100"
   version="1.1"
   id="svg5652"
   inkscape:version="0.92.4 (5da689c313, 2019-01-14)"
   sodipodi:docname="logo.svg">
  <defs
     id="defs5646" />
  <sodipodi:namedview
     id="base"
     pagecolor="#ffffff"
     bordercolor="#666666"
     borderopacity="1.0"
     inkscape:pageopacity="0.0"
     inkscape:pageshadow="2"
     inkscape:zoom="1.4"
     inkscape:cx="148.48914"
     inkscape:cy="240.63434"
     inkscape:document-units="mm"
     inkscape:current-layer="layer1"
     showgrid="false"
     inkscape:window-width="1920"
     inkscape:window-height="1017"
     inkscape:window-x="-8"
     inkscape:window-y="-8"
     inkscape:window-maximized="1" />
  <metadata
     id="metadata5649">
    <rdf:RDF>
      <cc:Work
         rdf:about="">
        <dc:format>image/svg+xml</dc:format>
        <dc:type
           rdf:resource="http://purl.org/dc/dcmitype/StillImage" />
        <dc:title></dc:title>
      </cc:Work>
    </rdf:RDF>
  </metadata>
  <g
     inkscape:label="Layer 1"
     inkscape:groupmode="layer"
     id="layer1"
     transform="translate(0,-197)">
    <g
       id="g6583"
       transform="translate(-58.359524,113.16607)">
      <g
         style="fill:#3498db;fill-opacity:1"
         id="g6"
         transform="matrix(0.11687851,0,0,0.11687851,76.47929,103.18863)">
        <g
           style="fill:#3498db;fill-opacity:1"
           id="g4">
          <path
             style="fill:#3498db;fill-opacity:1"
             id="path2"
             d="m 273.063,256.383 -64,-111.047 c -1.634,-2.83 -4.652,-4.766 -7.92,-4.766 h -128 c -3.268,0 -6.286,1.935 -7.92,4.766 l -64,110.95 c -1.63,2.83 -1.63,6.36 0,9.191 l 64,110.686 c 1.634,2.83 4.652,4.408 7.92,4.408 h 128.001 c 3.268,0 6.286,-1.554 7.92,-4.384 l 64,-110.755 c 1.629,-2.83 1.629,-6.219 -0.001,-9.049 z M 195.867,362.285 H 78.42 L 19.701,260.573 78.42,158.856 h 117.447 l 58.719,101.717 z"
             inkscape:connector-curvature="0" />
        </g>
      </g>
      <path
         style="fill:#3498db;fill-opacity:1;stroke-width:0.1168785"
         id="path8"
         d="m 136.17835,117.11976 -7.48022,-12.97635 c -0.19098,-0.33076 -0.54372,-0.55423 -0.92568,-0.55423 h -14.96068 c -0.38196,0 -0.7347,0.22616 -0.92568,0.55704 l -7.48021,12.96769 c -0.1904,0.33077 -0.1904,0.73248 0,1.06325 l 7.48021,12.95066 c 0.19098,0.33076 0.54372,0.5124 0.92568,0.5124 h 14.96057 c 0.38195,0 0.73469,-0.18164 0.92567,-0.5124 l 7.48022,-12.94493 c 0.19064,-0.33089 0.19064,-0.73237 1.2e-4,-1.06313 z m -9.02279,12.38333 h -13.72691 l -6.86299,-11.88812 6.86299,-11.88855 h 13.72703 l 6.86287,11.88844 z"
         inkscape:connector-curvature="0" />
      <g
         style="fill:#3498db;fill-opacity:1"
         id="g18"
         transform="matrix(0.11687851,0,0,0.11687851,76.47929,103.18863)">
        <g
           style="fill:#3498db;fill-opacity:1"
           id="g16">
          <path
             style="fill:#3498db;fill-opacity:1"
             id="path14"
             d="m 510.779,384.24 -64,-110.903 c -1.634,-2.83 -4.652,-4.766 -7.92,-4.766 H 310.857 c -3.268,0 -6.286,1.935 -7.92,4.766 l -64,110.95 c -1.629,2.83 -1.629,6.361 0,9.191 l 64,110.686 c 1.634,2.83 4.652,4.409 7.92,4.409 h 128.001 c 3.268,0 6.286,-1.554 7.92,-4.384 l 64,-110.755 c 1.631,-2.832 1.631,-6.364 10e-4,-9.194 z M 433.581,490.286 H 316.135 L 257.416,388.574 316.135,286.857 H 433.582 L 492.3,388.573 Z"
             inkscape:connector-curvature="0" />
        </g>
      </g>
      <g
         style="fill:#3498db;fill-opacity:1"
         transform="matrix(0.04819659,0,0,0.04819659,110.24502,106.45658)"
         id="g5458">
        <g
           style="fill:#3498db;fill-opacity:1"
           id="g5376">
          <g
             style="fill:#3498db;fill-opacity:1"
             id="g5374">
            <g
               style="fill:#3498db;fill-opacity:1"
               id="g5372">
              <path
                 style="fill:#3498db;fill-opacity:1"
                 inkscape:connector-curvature="0"
                 d="m 132,230.415 h -13.6 c -3.2,0 -5.6,2.8 -5.6,5.6 v 13.6 c 0,3.2 2.4,5.6 5.6,5.6 H 132 c 3.2,0 5.6,-2.4 5.6,-5.6 v -13.6 c 0,-3.2 -2.4,-5.6 -5.6,-5.6 z"
                 id="path5322" />
              <path
                 style="fill:#3498db;fill-opacity:1"
                 inkscape:connector-curvature="0"
                 d="M 92,269.215 H 78.4 c -3.2,0 -6,2.8 -5.6,5.6 v 13.6 c 0,3.2 2.4,5.6 5.6,5.6 H 92 c 3.2,0 5.6,-2.4 5.6,-5.6 v -13.6 c 0,-3.2 -2.4,-5.6 -5.6,-5.6 z"
                 id="path5324" />
              <path
                 style="fill:#3498db;fill-opacity:1"
                 inkscape:connector-curvature="0"
                 d="M 52,192.015 H 38.4 c -3.2,0 -6,2.8 -5.6,5.6 v 13.6 c 0,3.2 2.4,5.6 5.6,5.6 H 52 c 3.2,0 5.6,-2.4 5.6,-5.6 v -13.6 c 0,-3.2 -2.4,-5.6 -5.6,-5.6 z"
                 id="path5326" />
              <path
                 style="fill:#3498db;fill-opacity:1"
                 inkscape:connector-curvature="0"
                 d="M 92,192.015 H 78.4 c -3.2,0 -6,2.8 -5.6,5.6 v 13.6 c 0,3.2 2.4,5.6 5.6,5.6 H 92 c 3.2,0 5.6,-2.4 5.6,-5.6 v -13.6 c 0,-3.2 -2.4,-5.6 -5.6,-5.6 z"
                 id="path5328" />
              <path
                 style="fill:#3498db;fill-opacity:1"
                 inkscape:connector-curvature="0"
                 d="M 52,230.415 H 38.4 c -3.2,0 -6,2.8 -5.6,5.6 v 13.6 c 0,3.2 2.4,5.6 5.6,5.6 H 52 c 3.2,0 5.6,-2.4 5.6,-5.6 v -13.6 c 0,-3.2 -2.4,-5.6 -5.6,-5.6 z"
                 id="path5330" />
              <path
                 style="fill:#3498db;fill-opacity:1"
                 inkscape:connector-curvature="0"
                 d="M 92,230.415 H 78.4 c -3.2,0 -6,2.8 -5.6,5.6 v 13.6 c 0,3.2 2.4,5.6 5.6,5.6 H 92 c 3.2,0 5.6,-2.4 5.6,-5.6 v -13.6 c 0,-3.2 -2.4,-5.6 -5.6,-5.6 z"
                 id="path5332" />
              <path
                 style="fill:#3498db;fill-opacity:1"
                 inkscape:connector-curvature="0"
                 d="M 198.4,216.815 H 212 c 3.2,0 5.6,-2.4 5.6,-5.6 v -13.6 c 0,-3.2 -2.4,-5.6 -5.6,-5.6 h -13.6 c -3.2,0 -5.6,2.8 -5.6,5.6 v 13.6 c 0,3.2 2.4,5.6 5.6,5.6 z"
                 id="path5334" />
              <path
                 style="fill:#3498db;fill-opacity:1"
                 inkscape:connector-curvature="0"
                 d="m 324,211.215 c 0,3.2 2.4,5.6 5.6,5.6 h 35.6 c 3.2,0 5.6,-2.4 5.6,-5.6 v -13.6 c 0,-3.2 -2.4,-5.6 -5.6,-5.6 h -35.6 c -3.2,0 -6,2.8 -5.6,5.6 z"
                 id="path5336" />
              <path
                 style="fill:#3498db;fill-opacity:1"
                 inkscape:connector-curvature="0"
                 d="M 52,269.215 H 38.4 c -3.2,0 -6,2.8 -5.6,5.6 v 13.6 c 0,3.2 2.4,5.6 5.6,5.6 H 52 c 3.2,0 5.6,-2.4 5.6,-5.6 v -13.6 c 0,-3.2 -2.4,-5.6 -5.6,-5.6 z"
                 id="path5338" />
              <path
                 style="fill:#3498db;fill-opacity:1"
                 inkscape:connector-curvature="0"
                 d="M 198.4,255.215 H 212 c 3.2,0 5.6,-2.4 5.6,-5.6 v -13.6 c 0,-3.2 -2.4,-5.6 -5.6,-5.6 h -13.6 c -3.2,0 -5.6,2.8 -5.6,5.6 v 13.6 c 0,3.2 2.4,5.6 5.6,5.6 z"
                 id="path5340" />
              <path
                 style="fill:#3498db;fill-opacity:1"
                 inkscape:connector-curvature="0"
                 d="M 158.4,216.815 H 172 c 3.2,0 5.6,-2.4 5.6,-5.6 v -13.6 c 0,-3.2 -2.4,-5.6 -5.6,-5.6 h -13.6 c -3.2,0 -5.6,2.8 -5.6,5.6 v 13.6 c 0,3.2 2.4,5.6 5.6,5.6 z"
                 id="path5342" />
              <path
                 style="fill:#3498db;fill-opacity:1"
                 inkscape:connector-curvature="0"
                 d="M 158.4,255.215 H 172 c 3.2,0 5.6,-2.4 5.6,-5.6 v -13.6 c 0,-3.2 -2.4,-5.6 -5.6,-5.6 h -13.6 c -3.2,0 -5.6,2.8 -5.6,5.6 v 13.6 c 0,3.2 2.4,5.6 5.6,5.6 z"
                 id="path5344" />
              <path
                 style="fill:#3498db;fill-opacity:1"
                 inkscape:connector-curvature="0"
                 d="m 132,269.215 h -13.6 c -3.2,0 -5.6,2.8 -5.6,5.6 v 13.6 c 0,3.2 2.4,5.6 5.6,5.6 H 132 c 3.2,0 5.6,-2.4 5.6,-5.6 v -13.6 c 0,-3.2 -2.4,-5.6 -5.6,-5.6 z"
                 id="path5346" />
              <path
                 style="fill:#3498db;fill-opacity:1"
                 inkscape:connector-curvature="0"
                 d="m 334.8,230.415 h -13.6 c -3.2,0 -6,2.8 -5.6,5.6 v 13.6 c 0,3.2 2.4,5.6 5.6,5.6 h 13.6 c 3.2,0 5.6,-2.4 5.6,-5.6 v -13.6 c 0,-3.2 -2.4,-5.6 -5.6,-5.6 z"
                 id="path5348" />
              <path
                 style="fill:#3498db;fill-opacity:1"
                 inkscape:connector-curvature="0"
                 d="m 334.8,269.215 h -13.6 c -3.2,0 -6,2.8 -5.6,5.6 v 13.6 c 0,3.2 2.4,5.6 5.6,5.6 h 13.6 c 3.2,0 5.6,-2.4 5.6,-5.6 v -13.6 c 0,-3.2 -2.4,-5.6 -5.6,-5.6 z"
                 id="path5350" />
              <path
                 style="fill:#3498db;fill-opacity:1"
                 inkscape:connector-curvature="0"
                 d="m 374,269.215 h -13.6 c -3.2,0 -6,2.8 -5.6,5.6 v 13.6 c 0,3.2 2.4,5.6 5.6,5.6 H 374 c 3.2,0 5.6,-2.4 5.6,-5.6 v -13.6 c 0,-3.2 -2.4,-5.6 -5.6,-5.6 z"
                 id="path5352" />
              <path
                 style="fill:#3498db;fill-opacity:1"
                 inkscape:connector-curvature="0"
                 d="m 374,230.415 h -13.6 c -3.2,0 -6,2.8 -5.6,5.6 v 13.6 c 0,3.2 2.4,5.6 5.6,5.6 H 374 c 3.2,0 5.6,-2.4 5.6,-5.6 v -13.6 c 0,-3.2 -2.4,-5.6 -5.6,-5.6 z"
                 id="path5354" />
              <path
                 style="fill:#3498db;fill-opacity:1"
                 inkscape:connector-curvature="0"
                 d="m 402.8,168.015 -0.4,-0.4 c -6,-6 -14,-9.6 -22.8,-9.6 H 214 c 2.4,-16.4 20,-21.2 37.6,-26.4 23.2,-6.8 46.4,-13.2 48,-40 0.4,-4.8 -3.2,-8.4 -7.6,-8.8 -4.8,-0.4 -8.4,3.2 -8.8,7.6 -0.8,15.2 -18.4,20 -36,25.2 -24.4,6.8 -49.2,14 -50,42.4 H 32.4 c -8.8,0 -16.8,3.6 -22.8,9.6 -6,6 -9.6,14 -9.6,22.8 v 106 c 0,8.8 3.6,16.8 9.6,22.8 6,6 14,9.6 22.8,9.6 h 346.8 c 8.8,0 16.8,-3.6 22.8,-9.6 6,-6 9.6,-14 9.6,-22.8 v -106 c 0,-8.8 -3.2,-16.4 -8.8,-22.4 z m -7.6,128 c 0,4.4 -1.6,8.4 -4.4,11.2 -2.8,3.2 -6.8,4.8 -11.2,4.8 H 32.4 c -4.4,0 -8.4,-1.6 -11.2,-4.4 -2.8,-2.8 -4.4,-6.8 -4.4,-11.2 v -106 c 0,-4.4 1.6,-8.4 4.4,-11.2 2.8,-3.2 6.8,-4.8 11.2,-4.8 h 347.2 c 4.4,0 8.4,2 10.8,4.8 l 0.4,0.4 c 2.8,2.8 4.4,6.8 4.4,10.8 z"
                 id="path5356" />
              <path
                 style="fill:#3498db;fill-opacity:1"
                 inkscape:connector-curvature="0"
                 d="m 292,192.015 h -13.6 c -3.2,0 -5.6,2.8 -5.6,5.6 v 13.6 c 0,3.2 2.4,5.6 5.6,5.6 H 292 c 3.2,0 5.6,-2.4 5.6,-5.6 v -13.6 c 0,-3.2 -2.4,-5.6 -5.6,-5.6 z"
                 id="path5358" />
              <path
                 style="fill:#3498db;fill-opacity:1"
                 inkscape:connector-curvature="0"
                 d="m 245.6,269.215 h -87.2 c -3.2,0 -5.6,2.8 -5.6,5.6 v 13.6 c 0,3.2 2.4,5.6 5.6,5.6 h 87.2 c 3.2,0 5.6,-2.4 5.6,-5.6 v -13.6 c 0,-3.2 -2.4,-5.6 -5.6,-5.6 z"
                 id="path5360" />
              <path
                 style="fill:#3498db;fill-opacity:1"
                 inkscape:connector-curvature="0"
                 d="m 132,192.015 h -13.6 c -3.2,0 -5.6,2.8 -5.6,5.6 v 13.6 c 0,3.2 2.4,5.6 5.6,5.6 H 132 c 3.2,0 5.6,-2.4 5.6,-5.6 v -13.6 c 0,-3.2 -2.4,-5.6 -5.6,-5.6 z"
                 id="path5362" />
              <path
                 style="fill:#3498db;fill-opacity:1"
                 inkscape:connector-curvature="0"
                 d="m 252,230.415 h -13.6 c -3.2,0 -5.6,2.8 -5.6,5.6 v 13.6 c 0,3.2 2.4,5.6 5.6,5.6 H 252 c 3.2,0 5.6,-2.4 5.6,-5.6 v -13.6 c 0,-3.2 -2.4,-5.6 -5.6,-5.6 z"
                 id="path5364" />
              <path
                 style="fill:#3498db;fill-opacity:1"
                 inkscape:connector-curvature="0"
                 d="m 292,269.215 h -13.6 c -3.2,0 -5.6,2.8 -5.6,5.6 v 13.6 c 0,3.2 2.4,5.6 5.6,5.6 H 292 c 3.2,0 5.6,-2.4 5.6,-5.6 v -13.6 c 0,-3.2 -2.4,-5.6 -5.6,-5.6 z"
                 id="path5366" />
              <path
                 style="fill:#3498db;fill-opacity:1"
                 inkscape:connector-curvature="0"
                 d="m 292,230.415 h -13.6 c -3.2,0 -5.6,2.8 -5.6,5.6 v 13.6 c 0,3.2 2.4,5.6 5.6,5.6 H 292 c 3.2,0 5.6,-2.4 5.6,-5.6 v -13.6 c 0,-3.2 -2.4,-5.6 -5.6,-5.6 z"
                 id="path5368" />
              <path
                 style="fill:#3498db;fill-opacity:1"
                 inkscape:connector-curvature="0"
                 d="m 252,192.015 h -13.6 c -3.2,0 -5.6,2.8 -5.6,5.6 v 13.6 c 0,3.2 2.4,5.6 5.6,5.6 H 252 c 3.2,0 5.6,-2.4 5.6,-5.6 v -13.6 c 0,-3.2 -2.4,-5.6 -5.6,-5.6 z"
                 id="path5370" />
            </g>
          </g>
        </g>
        <g
           style="fill:#3498db;fill-opacity:1"
           id="g5378" />
        <g
           style="fill:#3498db;fill-opacity:1"
           id="g5380" />
        <g
           style="fill:#3498db;fill-opacity:1"
           id="g5382" />
        <g
           style="fill:#3498db;fill-opacity:1"
           id="g5384" />
        <g
           style="fill:#3498db;fill-opacity:1"
           id="g5386" />
        <g
           style="fill:#3498db;fill-opacity:1"
           id="g5388" />
        <g
           style="fill:#3498db;fill-opacity:1"
           id="g5390" />
        <g
           style="fill:#3498db;fill-opacity:1"
           id="g5392" />
        <g
           style="fill:#3498db;fill-opacity:1"
           id="g5394" />
        <g
           style="fill:#3498db;fill-opacity:1"
           id="g5396" />
        <g
           style="fill:#3498db;fill-opacity:1"
           id="g5398" />
        <g
           style="fill:#3498db;fill-opacity:1"
           id="g5400" />
        <g
           style="fill:#3498db;fill-opacity:1"
           id="g5402" />
        <g
           style="fill:#3498db;fill-opacity:1"
           id="g5404" />
        <g
           style="fill:#3498db;fill-opacity:1"
           id="g5406" />
      </g>
      <g
         style="fill:#3498db;fill-opacity:1"
         transform="matrix(0.02897205,0,0,0.02897205,113.32414,141.50749)"
         id="g5478">
        <path
           style="fill:#3498db;fill-opacity:1"
           inkscape:connector-curvature="0"
           d="m 439.15088,-46.980727 c -4.32405,-7.065608 -13.55658,-9.290877 -20.62386,-4.965341 l -64.86356,39.690339 C 326.71933,3.9408081 317.5666,38.138984 332.82951,65.63247 c 4.75034,8.556064 4.66077,19.136773 -0.23241,27.612008 -2.77185,4.801 -6.74509,11.682842 -9.72979,16.852492 -65.80268,-29.416353 -144.85359,-5.10716 -181.96088,59.16597 L 52.199176,322.90841 c -39.42448,68.28662 -15.944157,155.91637 52.341494,195.34111 68.2832,39.42333 155.91496,15.94661 195.34111,-52.34149 l 88.70725,-153.64547 c 37.22236,-64.4696 18.44623,-145.01759 -39.74094,-187.16477 l 9.75241,-16.89168 c 10.10921,-17.542194 10.28605,-39.430799 0.45815,-57.134385 -7.11976,-12.824247 -3.48496,-29.384272 10.20643,-37.70333 l 64.92072,-39.72429 c 7.06561,-4.324053 9.28939,-13.558259 4.96508,-20.624832 z M 362.60878,297.26367 273.90153,450.90914 C 242.74685,504.86921 173.50059,523.42369 119.53982,492.27023 65.57975,461.11556 47.025272,391.8693 78.178723,337.90853 L 166.88694,184.2628 c 28.77854,-49.84589 89.50465,-69.27293 140.87683,-48.00432 l -19.91707,34.49739 c -19.22884,-3.85455 -39.64287,4.66323 -49.97865,22.56532 l -15.99971,27.7123 c -10.33578,17.9021 -7.50634,39.84031 5.44719,54.56544 L 217.58079,292.46 c -4.14223,7.17455 -1.68423,16.34795 5.49033,20.49018 7.17359,4.14249 16.34821,1.68519 20.49018,-5.49033 l 9.73474,-16.86106 c 19.51021,3.91167 39.76873,-4.88123 49.97865,-22.56532 l 15.9997,-27.7123 c 10.33578,-17.9021 7.50634,-39.84031 -5.44718,-54.56544 l 19.91637,-34.49617 c 43.89133,33.69834 57.78137,95.91843 28.8652,146.00411 z m -69.31516,-71.94333 -15.99971,27.71231 c -4.68766,8.11786 -15.10421,10.90897 -23.22278,6.22252 -8.09189,-4.67185 -10.94575,-15.04052 -6.22253,-23.22278 l 15.9997,-27.71231 c 4.68767,-8.11786 15.10422,-10.90897 23.22279,-6.22252 8.11787,4.68767 10.90923,15.10518 6.22253,23.22278 z"
           id="path5476" />
      </g>
      <g
         style="fill:#3498db;fill-opacity:1"
         transform="matrix(0.0309052,0,0,0.0309052,84.616325,126.19204)"
         id="g5550">
        <g
           style="fill:#3498db;fill-opacity:1"
           id="g5493">
          <g
             style="fill:#3498db;fill-opacity:1"
             id="g5491">
            <path
               style="fill:#3498db;fill-opacity:1"
               inkscape:connector-curvature="0"
               d="M 452,36 H 60 C 26.916,36 0,62.916 0,96 v 240 c 0,33.084 26.916,60 60,60 h 176 v 40 H 132 v 40 H 380 V 436 H 276 v -40 h 176 c 33.084,0 60,-26.916 60,-60 V 96 C 512,62.916 485.084,36 452,36 Z m 20,300 c 0,11.028 -8.972,20 -20,20 H 60 C 48.972,356 40,347.028 40,336 V 96 C 40,84.972 48.972,76 60,76 h 392 c 11.028,0 20,8.972 20,20 z"
               id="path5489" />
          </g>
        </g>
        <g
           style="fill:#3498db;fill-opacity:1"
           id="g5495" />
        <g
           style="fill:#3498db;fill-opacity:1"
           id="g5497" />
        <g
           style="fill:#3498db;fill-opacity:1"
           id="g5499" />
        <g
           style="fill:#3498db;fill-opacity:1"
           id="g5501" />
        <g
           style="fill:#3498db;fill-opacity:1"
           id="g5503" />
        <g
           style="fill:#3498db;fill-opacity:1"
           id="g5505" />
        <g
           style="fill:#3498db;fill-opacity:1"
           id="g5507" />
        <g
           style="fill:#3498db;fill-opacity:1"
           id="g5509" />
        <g
           style="fill:#3498db;fill-opacity:1"
           id="g5511" />
        <g
           style="fill:#3498db;fill-opacity:1"
           id="g5513" />
        <g
           style="fill:#3498db;fill-opacity:1"
           id="g5515" />
        <g
           style="fill:#3498db;fill-opacity:1"
           id="g5517" />
        <g
           style="fill:#3498db;fill-opacity:1"
           id="g5519" />
        <g
           style="fill:#3498db;fill-opacity:1"
           id="g5521" />
        <g
           style="fill:#3498db;fill-opacity:1"
           id="g5523" />
      </g>
    </g>
  </g>
</svg>
